<svg xmlns="http://www.w3.org/2000/svg" width="64" height="64" viewBox="0 0 64 64" fill="none">
  <rect width="64" height="64" rx="12" fill="#1E293B"/>
  <path d="M32 13C21.5066 13 13 21.5066 13 32C13 42.4934 21.5066 51 32 51C42.4934 51 51 42.4934 51 32C51 21.5066 42.4934 13 32 13ZM32 17C40.2843 17 47 23.7157 47 32C47 40.2843 40.2843 47 32 47C23.7157 47 17 40.2843 17 32C17 23.7157 23.7157 17 32 17Z" fill="#3B82F6"/>
  <path d="M32 22C26.4772 22 22 26.4772 22 32C22 37.5228 26.4772 42 32 42C37.5228 42 42 37.5228 42 32C42 26.4772 37.5228 22 32 22ZM32 26C35.3137 26 38 28.6863 38 32C38 35.3137 35.3137 38 32 38C28.6863 38 26 35.3137 26 32C26 28.6863 28.6863 26 32 26Z" fill="#60A5FA"/>
  <path d="M32 30C30.8954 30 30 30.8954 30 32C30 33.1046 30.8954 34 32 34C33.1046 34 34 33.1046 34 32C34 30.8954 33.1046 30 32 30Z" fill="#FFFFFF"/>
  <path d="M41.5 22.5L45.5 18.5M22.5 41.5L18.5 45.5M22.5 22.5L18.5 18.5M41.5 41.5L45.5 45.5" stroke="#FFFFFF" stroke-width="2" stroke-linecap="round"/>
</svg> 